<svg xmlns="http://www.w3.org/2000/svg" version="1.1" xmlns:xlink="http://www.w3.org/1999/xlink" xmlns:svgjs="http://svgjs.dev/svgjs" width="1000" height="1000" viewBox="0 0 1000 1000"><rect width="1000" height="1000" fill="#000000"></rect><g transform="matrix(0.7,0,0,0.7,149.57575757575756,282.1265587044535)"><svg viewBox="0 0 396 247" data-background-color="#444444" preserveAspectRatio="xMidYMid meet" height="623" width="1000" xmlns="http://www.w3.org/2000/svg" xmlns:xlink="http://www.w3.org/1999/xlink"><defs></defs><g id="tight-bounds" transform="matrix(1,0,0,1,0.2400000000000091,-0.09999999999999432)"><svg viewBox="0 0 395.52 247.2" height="247.2" width="395.52"><g><svg></svg></g><g><svg viewBox="0 0 395.52 247.2" height="247.2" width="395.52"><g transform="matrix(2.7090330563903127, 0, 0, 2.7090330563903127, 62.66593954392786, 1)"><svg xmlns="http://www.w3.org/2000/svg" xmlns:xlink="http://www.w3.org/1999/xlink" version="1.1" x="0" y="0" viewBox="0 5 99.736 90.512" enable-background="new 0 0 100 100" xml:space="preserve" height="90.512" width="99.736" class="icon-none" data-fill-palette-color="accent" id="none"><g fill="#00d1cd" data-fill-palette-color="accent"><g fill="#00d1cd" data-fill-palette-color="accent"><path d="M39.5 48.268c-1.45 0-2.5 1.176-2.5 2.625v5.25c0 1.449 1.05 2.625 2.5 2.625 1.449 0 2.5-1.176 2.5-2.625v-5.25C42 49.443 40.949 48.268 39.5 48.268z" fill="#ffffff" data-fill-palette-color="accent"></path><path d="M60.5 48.268c-1.449 0-2.5 1.176-2.5 2.625v5.25c0 1.449 1.051 2.625 2.5 2.625s2.5-1.176 2.5-2.625v-5.25C63 49.443 61.949 48.268 60.5 48.268z" fill="#ffffff" data-fill-palette-color="accent"></path><path d="M83.932 33.384c-0.707-8.284-7.678-14.811-16.141-14.811-0.702 0-1.4 0.045-2.092 0.135C64.498 10.954 57.777 5 49.692 5c-8.085 0-14.805 5.954-16.007 13.708-0.691-0.089-1.389-0.135-2.091-0.135-8.533 0-15.545 6.632-16.155 15.012C10.944 35.907 0 43.408 0 61.391c0 1.45 1.175 2.625 2.625 2.625 9.205 0 15.179-3.291 18.779-6.422 0.418 4.08 1.268 9.557 2.994 15.078 4.669 14.941 13.477 22.84 25.471 22.84s20.803-7.896 25.471-22.84c1.727-5.521 2.576-10.998 2.994-15.078 3.602 3.131 9.575 6.422 18.777 6.422 1.451 0 2.625-1.175 2.625-2.625C99.736 42.801 88.381 35.522 83.932 33.384zM78.462 49.719c-0.544-1.089-1.769-1.661-2.95-1.38-1.184 0.279-2.269 1.336-2.269 2.554 0 0.379-0.243 36.381-21.243 39.19v-1.36l4.727-4.479c1.024-1.025 1.148-2.688 0.123-3.711-1.024-1.026-2.625-1.026-3.647 0l-3.364 3.393-3.378-3.393c-1.025-1.026-2.68-1.026-3.704 0-1.025 1.023-1.143 2.686-0.118 3.711L47 88.725v1.357C27 87.27 26.125 51.27 26.125 50.893c0-1.218-0.776-2.273-1.961-2.554-0.201-0.048-0.373-0.071-0.572-0.071-0.977 0-1.88 0.548-2.332 1.451-0.043 0.084-4.068 7.87-15.919 8.929 1.125-15.297 11.538-20.117 13.719-20.96 1.266-0.489 1.94-1.855 1.586-3.141 0.121-5.934 4.986-10.724 10.948-10.724 1.256 0 2.491 0.213 3.67 0.632 0.829 0.295 1.75 0.155 2.454-0.373 0.704-0.528 1.097-1.372 1.046-2.25-0.012-0.21-0.02-0.421-0.02-0.634 0-6.037 4.911-10.949 10.948-10.949 6.037 0 10.949 4.912 10.949 10.949 0 0.213-0.009 0.424-0.021 0.634-0.05 0.878 0.343 1.722 1.046 2.25 0.705 0.528 1.626 0.668 2.454 0.373 1.179-0.419 2.414-0.632 3.67-0.632 5.979 0 10.858 4.823 10.946 10.784-0.152 0.736 0.015 1.508 0.471 2.114 0.376 0.499 0.911 0.842 1.505 0.98 1.54 0.601 12.503 5.42 13.675 20.947C82.688 57.607 78.632 50.049 78.462 49.719z" fill="#ffffff" data-fill-palette-color="accent"></path></g></g></svg><g></g></g><rect width="348.05760000000004" height="92.16404561886233" fill="#444444" y="77.51797719056883" x="23.731199999999973" data-fill-palette-color="quaternary"></rect><g transform="matrix(1,0,0,1,39.55199999999999,92.29751030502885)"><svg viewBox="0 0 316.416 62.604979389942294" height="62.604979389942294" width="316.416"><g><svg viewBox="0 0 316.416 62.604979389942294" height="62.604979389942294" width="316.416"><g><svg viewBox="0 0 316.416 62.604979389942294" height="62.604979389942294" width="316.416"><g><svg viewBox="0 0 316.416 62.604979389942294" height="62.604979389942294" width="316.416"><g><svg viewBox="0 0 316.416 62.604979389942294" height="62.604979389942294" width="316.416"><g transform="matrix(1,0,0,1,0,0)"><svg width="316.416" viewBox="4.35 -35.5 181.94 36" height="62.604979389942294" data-palette-color="#ffffff"><path d="M8.15 0L5.5 0Q4.95 0 4.65-0.33 4.35-0.65 4.35-1.15L4.35-1.15 4.35-33.8Q4.35-34.35 4.65-34.68 4.95-35 5.5-35L5.5-35 18.2-35Q21.9-35 24.63-33.8 27.35-32.6 28.85-30.23 30.35-27.85 30.35-24.3L30.35-24.3Q30.35-20.75 28.85-18.4 27.35-16.05 24.63-14.85 21.9-13.65 18.2-13.65L18.2-13.65 9.35-13.65 9.35-1.15Q9.35-0.65 9.03-0.33 8.7 0 8.15 0L8.15 0ZM9.3-30.8L9.3-17.85 17.95-17.85Q21.65-17.85 23.5-19.5 25.35-21.15 25.35-24.3L25.35-24.3Q25.35-27.4 23.55-29.1 21.75-30.8 17.95-30.8L17.95-30.8 9.3-30.8ZM49.55 0L46.95 0Q46.45 0 46.12-0.33 45.8-0.65 45.8-1.15L45.8-1.15 45.8-12.95 33.75-33.35Q33.7-33.5 33.65-33.65 33.6-33.8 33.6-34L33.6-34Q33.6-34.4 33.9-34.7 34.2-35 34.6-35L34.6-35 37.2-35Q37.65-35 38-34.77 38.35-34.55 38.5-34.15L38.5-34.15 48.25-17.95 58-34.15Q58.25-34.55 58.57-34.77 58.9-35 59.35-35L59.35-35 61.9-35Q62.35-35 62.65-34.7 62.95-34.4 62.95-34L62.95-34Q62.95-33.8 62.9-33.65 62.85-33.5 62.75-33.35L62.75-33.35 50.75-12.95 50.75-1.15Q50.75-0.65 50.42-0.33 50.1 0 49.55 0L49.55 0ZM72.5 0L69.95 0Q69.4 0 69.1-0.33 68.8-0.65 68.8-1.15L68.8-1.15 68.8-33.8Q68.8-34.35 69.1-34.68 69.4-35 69.95-35L69.95-35 82.15-35Q87.8-35 91.1-32.35 94.4-29.7 94.4-24.5L94.4-24.5Q94.4-20.65 92.47-18.23 90.55-15.8 87.25-14.85L87.25-14.85 94.95-1.55Q95.1-1.25 95.1-1L95.1-1Q95.1-0.6 94.77-0.3 94.45 0 94.05 0L94.05 0 91.65 0Q90.8 0 90.4-0.45 90-0.9 89.7-1.35L89.7-1.35 82.45-14.05 73.7-14.05 73.7-1.15Q73.7-0.65 73.37-0.33 73.05 0 72.5 0L72.5 0ZM73.7-30.8L73.7-18.3 81.95-18.3Q85.7-18.3 87.55-19.88 89.4-21.45 89.4-24.55L89.4-24.55Q89.4-27.6 87.57-29.2 85.75-30.8 81.95-30.8L81.95-30.8 73.7-30.8ZM123.74 0L102.69 0Q102.14 0 101.84-0.33 101.54-0.65 101.54-1.15L101.54-1.15 101.54-33.8Q101.54-34.35 101.84-34.68 102.14-35 102.69-35L102.69-35 123.34-35Q123.89-35 124.19-34.68 124.49-34.35 124.49-33.8L124.49-33.8 124.49-31.9Q124.49-31.35 124.19-31.05 123.89-30.75 123.34-30.75L123.34-30.75 106.34-30.75 106.34-19.8 122.24-19.8Q122.79-19.8 123.09-19.48 123.39-19.15 123.39-18.6L123.39-18.6 123.39-16.75Q123.39-16.25 123.09-15.93 122.79-15.6 122.24-15.6L122.24-15.6 106.34-15.6 106.34-4.25 123.74-4.25Q124.29-4.25 124.59-3.95 124.89-3.65 124.89-3.1L124.89-3.1 124.89-1.15Q124.89-0.65 124.59-0.33 124.29 0 123.74 0L123.74 0ZM143.09 0.5L143.09 0.5Q138.74 0.5 135.79-0.85 132.84-2.2 131.27-4.33 129.69-6.45 129.59-8.8L129.59-8.8Q129.59-9.2 129.92-9.53 130.24-9.85 130.69-9.85L130.69-9.85 133.24-9.85Q133.84-9.85 134.14-9.55 134.44-9.25 134.54-8.85L134.54-8.85Q134.84-7.65 135.79-6.48 136.74-5.3 138.52-4.53 140.29-3.75 143.09-3.75L143.09-3.75Q147.39-3.75 149.42-5.28 151.44-6.8 151.44-9.35L151.44-9.35Q151.44-11.1 150.37-12.18 149.29-13.25 147.09-14.1 144.89-14.95 141.39-15.95L141.39-15.95Q137.74-17 135.34-18.25 132.94-19.5 131.77-21.35 130.59-23.2 130.59-26.05L130.59-26.05Q130.59-28.75 132.04-30.88 133.49-33 136.24-34.25 138.99-35.5 142.84-35.5L142.84-35.5Q145.94-35.5 148.27-34.68 150.59-33.85 152.14-32.48 153.69-31.1 154.49-29.53 155.29-27.95 155.34-26.45L155.34-26.45Q155.34-26.1 155.09-25.78 154.84-25.45 154.29-25.45L154.29-25.45 151.64-25.45Q151.29-25.45 150.92-25.65 150.54-25.85 150.34-26.4L150.34-26.4Q150.04-28.45 148.04-29.85 146.04-31.25 142.84-31.25L142.84-31.25Q139.59-31.25 137.56-30 135.54-28.75 135.54-26.1L135.54-26.1Q135.54-24.4 136.49-23.28 137.44-22.15 139.49-21.3 141.54-20.45 144.84-19.5L144.84-19.5Q148.84-18.4 151.39-17.18 153.94-15.95 155.17-14.13 156.39-12.3 156.39-9.45L156.39-9.45Q156.39-6.3 154.74-4.08 153.09-1.85 150.12-0.68 147.14 0.5 143.09 0.5ZM174.34 0L171.74 0Q171.24 0 170.91-0.33 170.59-0.65 170.59-1.15L170.59-1.15 170.59-30.55 160.99-30.55Q160.49-30.55 160.16-30.88 159.84-31.2 159.84-31.7L159.84-31.7 159.84-33.8Q159.84-34.35 160.16-34.68 160.49-35 160.99-35L160.99-35 185.09-35Q185.64-35 185.96-34.68 186.29-34.35 186.29-33.8L186.29-33.8 186.29-31.7Q186.29-31.2 185.96-30.88 185.64-30.55 185.09-30.55L185.09-30.55 175.54-30.55 175.54-1.15Q175.54-0.65 175.21-0.33 174.89 0 174.34 0L174.34 0Z" opacity="1" transform="matrix(1,0,0,1,0,0)" fill="#ffffff" class="undefined-text-0" data-fill-palette-color="primary" id="text-0"></path></svg></g></svg></g></svg></g></svg></g></svg></g></svg></g></svg></g></svg><rect width="395.52" height="247.2" fill="none" stroke="none" visibility="hidden"></rect></g></svg></g></svg>